<?xml version="1.0" encoding="utf-8"?>
<!-- Generator: Adobe Illustrator 18.0.0, SVG Export Plug-In . SVG Version: 6.00 Build 0)  -->
<!DOCTYPE svg PUBLIC "-//W3C//DTD SVG 1.1//EN" "http://www.w3.org/Graphics/SVG/1.1/DTD/svg11.dtd">
<svg version="1.1" id="svg2" xmlns:svg="http://www.w3.org/2000/svg"
	 xmlns="http://www.w3.org/2000/svg" xmlns:xlink="http://www.w3.org/1999/xlink" x="0px" y="0px" viewBox="21.2 21.2 752.5 1411.9"
	 enable-background="new 21.2 21.2 752.5 1411.9" xml:space="preserve">
<path id="path25" fill="none" stroke="#0000BF" stroke-width="2" stroke-miterlimit="3.8636" d="M25.9,21.2h-4.7v706.2"/>
<path id="path27" fill="none" stroke="#0000BF" stroke-width="2" stroke-miterlimit="3.8636" d="M773.8,21.2v706.2"/>
<path id="path119" fill="none" stroke="#0000BF" stroke-width="2" stroke-miterlimit="3.8636" d="M278.8,22.5v283.8h237.5V22.5"/>
<path id="path125" fill="none" stroke="#0000BF" stroke-miterlimit="3.8637" d="M386.2,101.2c0-6.2,5-11.2,11.2-11.2
	c6.2,0,11.2,5,11.2,11.2c0,6.2-5,11.2-11.2,11.2C391.3,112.5,386.2,107.5,386.2,101.2z"/>
<path id="path127" fill="none" stroke="#0000BF" stroke-width="2" stroke-miterlimit="3.8636" d="M338.8,101.2
	c0,32.4,26.3,58.8,58.8,58.8c32.4,0,58.8-26.3,58.8-58.8"/>
<path id="path129" fill="none" stroke="#0000BF" stroke-width="2" stroke-miterlimit="3.8636" d="M67.5,22.5l0,210
	c52.2,131.1,180.2,223.8,329.9,223.8s277.8-92.7,330-223.8l0-210"/>
<path id="path131" fill="none" stroke="#0000BF" stroke-width="2" stroke-miterlimit="3.8636" d="M563.8,22.5V30"/>
<path id="path133" fill="none" stroke="#0000BF" stroke-width="2" stroke-miterlimit="3.8636" d="M231.2,22.5V30"/>
<path id="path135" fill="none" stroke="#0000BF" stroke-width="2" stroke-miterlimit="3.8636" d="M352.5,83.8h90"/>
<path id="path137" fill="none" stroke="#0000BF" stroke-width="2" stroke-miterlimit="3.8636" d="M22.5,443.8h45"/>
<path id="path139" fill="none" stroke="#0000BF" stroke-width="2" stroke-miterlimit="3.8636" d="M727.5,443.8h45"/>
<path id="path141" fill="#0000BF" d="M388.5,217.9l0.3,2.5c2.9-0.3,5.8-0.4,8.8-0.4c3,0,5.9,0.1,8.8,0.4l0.3-2.5c-3-0.3-6-0.4-9-0.4
	C394.5,217.5,391.4,217.7,388.5,217.9z"/>
<path id="path143" fill="#0000BF" d="M424.2,221.5l-0.7,2.4c5.6,1.8,11,4.1,16.1,6.9l1.2-2.2C435.6,225.7,430,223.3,424.2,221.5z"/>
<path id="path145" fill="#0000BF" d="M455.7,238.8l-1.6,1.9c4.5,3.8,8.6,8,12.2,12.6l2-1.5C464.5,247,460.3,242.7,455.7,238.8z"/>
<path id="path147" fill="#0000BF" d="M477.9,267l-2.2,1.1c2.6,5.2,4.7,10.7,6.3,16.4l2.4-0.7C482.8,277.9,480.6,272.3,477.9,267z"/>
<path id="path149" fill="#0000BF" d="M487.5,307.5c0-2-0.1-3.9-0.2-5.9l-2.5,0.2c0.1,1.9,0.2,3.8,0.2,5.7H487.5z"/>
<path id="path151" fill="#0000BF" d="M370.8,221.5l0.7,2.4c-5.6,1.8-11,4.1-16.1,6.9l-1.2-2.2C359.4,225.7,365,223.3,370.8,221.5z"
	/>
<path id="path153" fill="#0000BF" d="M339.3,238.8l1.6,1.9c-4.5,3.8-8.6,8-12.2,12.6l-2-1.5C330.5,247,334.7,242.7,339.3,238.8z"/>
<path id="path155" fill="#0000BF" d="M317.1,267l2.2,1.1c-2.6,5.2-4.7,10.7-6.3,16.4l-2.4-0.7C312.2,277.9,314.4,272.3,317.1,267z"
	/>
<path id="path157" fill="#0000BF" d="M307.5,307.5c0-2,0.1-3.9,0.2-5.9l2.5,0.2c-0.1,1.9-0.2,3.8-0.2,5.7H307.5z"/>
<path id="path159" fill="none" stroke="#0000BF" stroke-width="2" stroke-miterlimit="3.8636" d="M332.5,218.8H325"/>
<path id="path161" fill="none" stroke="#0000BF" stroke-width="2" stroke-miterlimit="3.8636" d="M462.5,218.8h7.5"/>
<path id="path163" fill="none" stroke="#0000BF" stroke-width="2" stroke-miterlimit="3.8636" d="M308.8,307.5
	c0,49,39.7,88.8,88.7,88.8c49,0,88.8-39.7,88.8-88.8"/>
<path id="path165" fill="none" stroke="#0000BF" stroke-width="2" stroke-miterlimit="3.8636" d="M278.8,128.8h-11.2"/>
<path id="path167" fill="none" stroke="#0000BF" stroke-width="2" stroke-miterlimit="3.8636" d="M278.8,146.2h-11.2"/>
<path id="path169" fill="none" stroke="#0000BF" stroke-width="2" stroke-miterlimit="3.8636" d="M278.8,193.8h-11.2"/>
<path id="path171" fill="none" stroke="#0000BF" stroke-width="2" stroke-miterlimit="3.8636" d="M278.8,241.2h-11.2"/>
<path id="path173" fill="none" stroke="#0000BF" stroke-width="2" stroke-miterlimit="3.8636" d="M516.2,128.8h11.2"/>
<path id="path175" fill="none" stroke="#0000BF" stroke-width="2" stroke-miterlimit="3.8636" d="M516.2,146.2h11.2"/>
<path id="path177" fill="none" stroke="#0000BF" stroke-width="2" stroke-miterlimit="3.8636" d="M516.2,193.8h11.2"/>
<path id="path179" fill="none" stroke="#0000BF" stroke-width="2" stroke-miterlimit="3.8636" d="M516.2,241.2h11.2"/>
<path id="path181" fill="none" stroke="#0000BF" stroke-width="2" stroke-miterlimit="3.8636" d="M486.2,22.5v283.8H308.8V22.5"/>
<path id="path219" fill="none" stroke="#0000BF" stroke-width="2" stroke-miterlimit="3.8636" d="M308.8,727.5
	c0-49,39.7-88.8,88.7-88.8c49,0,88.8,39.7,88.8,88.8"/>
<path id="path221" fill="none" stroke="#0000BF" stroke-width="2" stroke-miterlimit="3.8636" d="M366.3,727.5
	c0-17.3,14-31.2,31.2-31.2c17.3,0,31.2,14,31.2,31.2"/>
<path id="path223" fill="none" stroke="#0000BF" stroke-width="2" stroke-miterlimit="3.8636" d="M21.3,726.9h752.5"/>
<path id="path239" fill="none" stroke="#0000BF" stroke-width="2" stroke-miterlimit="3.8636" d="M25.9,21.2H775"/>
<path id="path25_1_" fill="none" stroke="#0000BF" stroke-width="2" stroke-miterlimit="3.8636" d="M21.2,726.9v706.2h4.7"/>
<path id="path27_1_" fill="none" stroke="#0000BF" stroke-width="2" stroke-miterlimit="3.8636" d="M773.8,726.9v706.2"/>
<path id="path119_1_" fill="none" stroke="#0000BF" stroke-width="2" stroke-miterlimit="3.8636" d="M516.2,1431.9v-283.8H278.8
	v283.8"/>
<path id="path125_1_" fill="none" stroke="#0000BF" stroke-miterlimit="3.8637" d="M397.5,1341.9c6.2,0,11.2,5,11.2,11.2
	c0,6.2-5,11.2-11.2,11.2c-6.2,0-11.2-5-11.2-11.2C386.2,1346.9,391.3,1341.9,397.5,1341.9z"/>
<path id="path127_1_" fill="none" stroke="#0000BF" stroke-width="2" stroke-miterlimit="3.8636" d="M456.2,1353.1
	c0-32.4-26.3-58.8-58.8-58.8c-32.4,0-58.8,26.3-58.8,58.8"/>
<path id="path129_1_" fill="none" stroke="#0000BF" stroke-width="2" stroke-miterlimit="3.8636" d="M727.5,1431.9l0-210
	c-52.2-131.1-180.3-223.8-330-223.8s-277.8,92.7-329.9,223.8l0,210"/>
<path id="path131_1_" fill="none" stroke="#0000BF" stroke-width="2" stroke-miterlimit="3.8636" d="M563.8,1424.4v7.5"/>
<path id="path133_1_" fill="none" stroke="#0000BF" stroke-width="2" stroke-miterlimit="3.8636" d="M231.2,1424.4v7.5"/>
<path id="path135_1_" fill="none" stroke="#0000BF" stroke-width="2" stroke-miterlimit="3.8636" d="M442.5,1370.6h-90"/>
<path id="path137_1_" fill="none" stroke="#0000BF" stroke-width="2" stroke-miterlimit="3.8636" d="M67.5,1010.6h-45"/>
<path id="path139_1_" fill="none" stroke="#0000BF" stroke-width="2" stroke-miterlimit="3.8636" d="M772.5,1010.6h-45"/>
<path id="path141_1_" fill="#0000BF" d="M397.5,1236.9c3,0,6.1-0.2,9-0.4l-0.3-2.5c-2.9,0.3-5.8,0.4-8.8,0.4c-3,0-5.9-0.1-8.8-0.4
	l-0.3,2.5C391.4,1236.7,394.5,1236.9,397.5,1236.9z"/>
<path id="path143_1_" fill="#0000BF" d="M440.8,1225.8l-1.2-2.2c-5.1,2.8-10.5,5.1-16.1,6.9l0.7,2.4
	C430,1231,435.6,1228.7,440.8,1225.8z"/>
<path id="path145_1_" fill="#0000BF" d="M468.2,1202.6l-2-1.5c-3.6,4.6-7.7,8.8-12.2,12.6l1.6,1.9
	C460.3,1211.7,464.5,1207.3,468.2,1202.6z"/>
<path id="path147_1_" fill="#0000BF" d="M484.4,1170.6l-2.4-0.7c-1.6,5.7-3.7,11.2-6.3,16.4l2.2,1.1
	C480.6,1182.1,482.8,1176.4,484.4,1170.6z"/>
<path id="path149_1_" fill="#0000BF" d="M485,1146.9c0,1.9-0.1,3.8-0.2,5.7l2.5,0.2c0.1-1.9,0.2-3.9,0.2-5.9H485z"/>
<path id="path151_1_" fill="#0000BF" d="M354.2,1225.8l1.2-2.2c5.1,2.8,10.5,5.1,16.1,6.9l-0.7,2.4
	C365,1231,359.4,1228.7,354.2,1225.8z"/>
<path id="path153_1_" fill="#0000BF" d="M326.8,1202.6l2-1.5c3.6,4.6,7.7,8.8,12.2,12.6l-1.6,1.9
	C334.7,1211.7,330.5,1207.3,326.8,1202.6z"/>
<path id="path155_1_" fill="#0000BF" d="M310.6,1170.6l2.4-0.7c1.6,5.7,3.7,11.2,6.3,16.4l-2.2,1.1
	C314.4,1182.1,312.2,1176.4,310.6,1170.6z"/>
<path id="path157_1_" fill="#0000BF" d="M310,1146.9c0,1.9,0.1,3.8,0.2,5.7l-2.5,0.2c-0.1-1.9-0.2-3.9-0.2-5.9H310z"/>
<path id="path159_1_" fill="none" stroke="#0000BF" stroke-width="2" stroke-miterlimit="3.8636" d="M325,1235.6h7.5"/>
<path id="path161_1_" fill="none" stroke="#0000BF" stroke-width="2" stroke-miterlimit="3.8636" d="M470,1235.6h-7.5"/>
<path id="path163_1_" fill="none" stroke="#0000BF" stroke-width="2" stroke-miterlimit="3.8636" d="M486.2,1146.9
	c0-49-39.7-88.8-88.8-88.8c-49,0-88.7,39.7-88.7,88.8"/>
<path id="path165_1_" fill="none" stroke="#0000BF" stroke-width="2" stroke-miterlimit="3.8636" d="M267.5,1325.6h11.2"/>
<path id="path167_1_" fill="none" stroke="#0000BF" stroke-width="2" stroke-miterlimit="3.8636" d="M267.5,1308.1h11.2"/>
<path id="path169_1_" fill="none" stroke="#0000BF" stroke-width="2" stroke-miterlimit="3.8636" d="M267.5,1260.6h11.2"/>
<path id="path171_1_" fill="none" stroke="#0000BF" stroke-width="2" stroke-miterlimit="3.8636" d="M267.5,1213.1h11.2"/>
<path id="path173_1_" fill="none" stroke="#0000BF" stroke-width="2" stroke-miterlimit="3.8636" d="M527.5,1325.6h-11.2"/>
<path id="path175_1_" fill="none" stroke="#0000BF" stroke-width="2" stroke-miterlimit="3.8636" d="M527.5,1308.1h-11.2"/>
<path id="path177_1_" fill="none" stroke="#0000BF" stroke-width="2" stroke-miterlimit="3.8636" d="M527.5,1260.6h-11.2"/>
<path id="path179_1_" fill="none" stroke="#0000BF" stroke-width="2" stroke-miterlimit="3.8636" d="M527.5,1213.1h-11.2"/>
<path id="path181_1_" fill="none" stroke="#0000BF" stroke-width="2" stroke-miterlimit="3.8636" d="M308.8,1431.9v-283.8h177.5
	v283.8"/>
<path id="path219_1_" fill="none" stroke="#0000BF" stroke-width="2" stroke-miterlimit="3.8636" d="M486.2,726.9
	c0,49-39.7,88.8-88.8,88.8c-49,0-88.7-39.7-88.7-88.8"/>
<path id="path221_1_" fill="none" stroke="#0000BF" stroke-width="2" stroke-miterlimit="3.8636" d="M428.8,726.9
	c0,17.3-14,31.2-31.2,31.2c-17.3,0-31.2-14-31.2-31.2"/>
<path id="path223_1_" fill="none" stroke="#0000BF" stroke-width="2" stroke-miterlimit="3.8636" d="M773.8,727.5H21.3"/>
<path id="path239_1_" fill="none" stroke="#0000BF" stroke-width="2" stroke-miterlimit="3.8636" d="M775,1433.1H25.9"/>
</svg>
